<svg xmlns="http://www.w3.org/2000/svg" width="131.999" height="127.785" viewBox="0 0 131.999 127.785">
  <g id="logo-4" transform="translate(-1595.262 -2785)">
    <g id="Group_5" data-name="Group 5" transform="translate(1131.07 3015.807)">
      <g id="g72" transform="translate(467.018 -230.807)">
        <path id="path74" d="M13.6,8.968l-46.55-34.32V-41.386h7.392A3.555,3.555,0,0,0-22-44.94,3.555,3.555,0,0,0-25.559-48.5H-32.95v-6.173A3.554,3.554,0,0,0-36.5-58.225a3.555,3.555,0,0,0-3.556,3.556V-48.5h-7.392a3.555,3.555,0,0,0-3.554,3.556,3.555,3.555,0,0,0,3.554,3.554h7.392v16.033l-46.55,34.32a4.152,4.152,0,0,0-.877,5.8,4.15,4.15,0,0,0,5.8.877L-36.5-17.665,8.676,15.647A4.149,4.149,0,0,0,13.6,8.968" transform="translate(88.297 58.225)" fill="#4c4c4c"/>
      </g>
      <g id="g76" transform="translate(507.831 -177.838)">
        <path id="path78" d="M1.465,0A10.978,10.978,0,1,0,12.444,10.977,10.978,10.978,0,0,0,1.465,0" transform="translate(9.513)" fill="#4c4c4c"/>
      </g>
    </g>
    <path id="text82" d="M-53.822.105a2.766,2.766,0,0,1-2.147-.883,3.276,3.276,0,0,1-.806-2.3A3.471,3.471,0,0,1-55.953-5.5a2.87,2.87,0,0,1,2.237-.905,2.7,2.7,0,0,1,2.1.879,3.288,3.288,0,0,1,.8,2.3,3.483,3.483,0,0,1-.817,2.439A2.817,2.817,0,0,1-53.822.105Zm.053-5.845a2.032,2.032,0,0,0-1.613.716A2.773,2.773,0,0,0-56-3.142a2.792,2.792,0,0,0,.6,1.874,1.971,1.971,0,0,0,1.575.71,2.069,2.069,0,0,0,1.635-.677,2.766,2.766,0,0,0,.6-1.894,2.89,2.89,0,0,0-.58-1.929A1.989,1.989,0,0,0-53.769-5.739Zm7.392.105h-2.461v2.18h2.276v.664h-2.276V0h-.738V-6.3h3.2Zm6.2,5.739a2.766,2.766,0,0,1-2.147-.883,3.276,3.276,0,0,1-.806-2.3A3.471,3.471,0,0,1-42.308-5.5a2.87,2.87,0,0,1,2.237-.905,2.7,2.7,0,0,1,2.1.879,3.288,3.288,0,0,1,.8,2.3,3.483,3.483,0,0,1-.817,2.439A2.817,2.817,0,0,1-40.177.105Zm.053-5.845a2.032,2.032,0,0,0-1.613.716,2.773,2.773,0,0,0-.62,1.881,2.792,2.792,0,0,0,.6,1.874,1.971,1.971,0,0,0,1.575.71,2.069,2.069,0,0,0,1.635-.677,2.766,2.766,0,0,0,.6-1.894,2.89,2.89,0,0,0-.58-1.929A1.989,1.989,0,0,0-40.124-5.739Zm8.8,3.19q0,2.654-2.4,2.654-2.294,0-2.294-2.553V-6.3h.738V-2.5q0,1.938,1.635,1.938,1.578,0,1.578-1.872V-6.3h.738ZM-25.231,0h-.879l-1.055-1.767a3.848,3.848,0,0,0-.281-.42,1.6,1.6,0,0,0-.279-.283.967.967,0,0,0-.308-.16,1.265,1.265,0,0,0-.371-.051h-.606V0h-.738V-6.3h1.881a2.68,2.68,0,0,1,.762.1,1.706,1.706,0,0,1,.606.314,1.46,1.46,0,0,1,.4.525,1.741,1.741,0,0,1,.145.736,1.772,1.772,0,0,1-.1.6,1.578,1.578,0,0,1-.281.49,1.7,1.7,0,0,1-.439.367,2.243,2.243,0,0,1-.578.235v.018a1.329,1.329,0,0,1,.275.16,1.512,1.512,0,0,1,.222.213,2.823,2.823,0,0,1,.209.279q.1.156.231.363ZM-29.01-5.634v2.285h1a1.52,1.52,0,0,0,.512-.083,1.185,1.185,0,0,0,.406-.24,1.086,1.086,0,0,0,.268-.382,1.28,1.28,0,0,0,.1-.508.988.988,0,0,0-.327-.789A1.406,1.406,0,0,0-28-5.634ZM-18.631,0H-21.9V-6.3h.738V-.668h2.531Zm6.1,0h-.817l-.668-1.767h-2.672L-17.312,0h-.822l2.417-6.3h.765Zm-1.727-2.43-.989-2.685a2.571,2.571,0,0,1-.1-.422h-.018a2.354,2.354,0,0,1-.1.422l-.98,2.685ZM-11.6,0V-6.3h1.74q3.331,0,3.331,3.072A3.1,3.1,0,0,1-7.453-.885,3.432,3.432,0,0,1-9.929,0Zm.738-5.634V-.668h.94a2.669,2.669,0,0,0,1.929-.664A2.487,2.487,0,0,0-7.3-3.212q0-2.421-2.575-2.421ZM-1.193-6.3-3.272-2.329V0H-4.01V-2.312L-6.036-6.3H-5.2l1.411,2.848q.026.053.154.387h.013a2.312,2.312,0,0,1,.167-.387L-1.975-6.3ZM4.691.105A2.766,2.766,0,0,1,2.544-.778a3.276,3.276,0,0,1-.806-2.3A3.471,3.471,0,0,1,2.56-5.5,2.87,2.87,0,0,1,4.8-6.407a2.7,2.7,0,0,1,2.1.879,3.288,3.288,0,0,1,.8,2.3A3.483,3.483,0,0,1,6.88-.791,2.817,2.817,0,0,1,4.691.105Zm.053-5.845a2.032,2.032,0,0,0-1.613.716,2.773,2.773,0,0,0-.62,1.881,2.792,2.792,0,0,0,.6,1.874,1.971,1.971,0,0,0,1.575.71,2.069,2.069,0,0,0,1.635-.677,2.766,2.766,0,0,0,.6-1.894,2.89,2.89,0,0,0-.58-1.929A1.989,1.989,0,0,0,4.744-5.739Zm7.392.105H9.675v2.18h2.276v.664H9.675V0H8.936V-6.3h3.2ZM15.5-.255v-.87a1.69,1.69,0,0,0,.358.237A2.9,2.9,0,0,0,16.3-.71a3.5,3.5,0,0,0,.464.112,2.585,2.585,0,0,0,.431.04,1.687,1.687,0,0,0,1.017-.253.855.855,0,0,0,.336-.727.854.854,0,0,0-.112-.444,1.262,1.262,0,0,0-.31-.345,3.074,3.074,0,0,0-.468-.3q-.27-.143-.582-.3-.33-.167-.615-.338a2.666,2.666,0,0,1-.5-.378,1.576,1.576,0,0,1-.332-.468,1.449,1.449,0,0,1-.121-.613,1.442,1.442,0,0,1,.189-.749A1.621,1.621,0,0,1,16.2-6a2.251,2.251,0,0,1,.7-.308,3.209,3.209,0,0,1,.8-.1,3.073,3.073,0,0,1,1.358.224v.831a2.461,2.461,0,0,0-1.433-.387,2.356,2.356,0,0,0-.483.051,1.365,1.365,0,0,0-.431.165.954.954,0,0,0-.308.294.782.782,0,0,0-.119.439.9.9,0,0,0,.09.417,1.023,1.023,0,0,0,.266.321,2.648,2.648,0,0,0,.428.281q.253.136.582.3t.642.352a2.933,2.933,0,0,1,.532.409,1.816,1.816,0,0,1,.363.5,1.4,1.4,0,0,1,.134.624,1.582,1.582,0,0,1-.182.789,1.5,1.5,0,0,1-.492.525,2.15,2.15,0,0,1-.714.292,3.911,3.911,0,0,1-.853.09A3.474,3.474,0,0,1,16.71.081q-.22-.024-.448-.07A3.658,3.658,0,0,1,15.829-.1,1.347,1.347,0,0,1,15.5-.255Zm7.616.36a2.766,2.766,0,0,1-2.147-.883,3.276,3.276,0,0,1-.806-2.3A3.471,3.471,0,0,1,20.986-5.5a2.87,2.87,0,0,1,2.237-.905,2.7,2.7,0,0,1,2.1.879,3.288,3.288,0,0,1,.8,2.3,3.483,3.483,0,0,1-.817,2.439A2.817,2.817,0,0,1,23.117.105Zm.053-5.845a2.032,2.032,0,0,0-1.613.716,2.773,2.773,0,0,0-.62,1.881,2.792,2.792,0,0,0,.6,1.874,1.971,1.971,0,0,0,1.575.71,2.069,2.069,0,0,0,1.635-.677,2.766,2.766,0,0,0,.6-1.894,2.89,2.89,0,0,0-.58-1.929A1.989,1.989,0,0,0,23.17-5.739ZM31.88,0H31L29.947-1.767a3.848,3.848,0,0,0-.281-.42,1.6,1.6,0,0,0-.279-.283.967.967,0,0,0-.308-.16,1.265,1.265,0,0,0-.371-.051H28.1V0h-.738V-6.3h1.881a2.68,2.68,0,0,1,.762.1,1.706,1.706,0,0,1,.606.314,1.46,1.46,0,0,1,.4.525,1.741,1.741,0,0,1,.145.736,1.772,1.772,0,0,1-.1.6,1.578,1.578,0,0,1-.281.49,1.7,1.7,0,0,1-.439.367,2.243,2.243,0,0,1-.578.235v.018a1.329,1.329,0,0,1,.275.16,1.512,1.512,0,0,1,.222.213,2.823,2.823,0,0,1,.209.279q.1.156.231.363ZM28.1-5.634v2.285h1a1.52,1.52,0,0,0,.512-.083,1.185,1.185,0,0,0,.406-.24,1.086,1.086,0,0,0,.268-.382,1.28,1.28,0,0,0,.1-.508.988.988,0,0,0-.327-.789,1.406,1.406,0,0,0-.947-.283ZM37.263,0h-.879L35.33-1.767a3.848,3.848,0,0,0-.281-.42,1.6,1.6,0,0,0-.279-.283.967.967,0,0,0-.308-.16,1.265,1.265,0,0,0-.371-.051h-.606V0h-.738V-6.3h1.881a2.68,2.68,0,0,1,.762.1A1.706,1.706,0,0,1,36-5.884a1.46,1.46,0,0,1,.4.525,1.741,1.741,0,0,1,.145.736,1.772,1.772,0,0,1-.1.6,1.578,1.578,0,0,1-.281.49,1.7,1.7,0,0,1-.439.367,2.243,2.243,0,0,1-.578.235v.018a1.329,1.329,0,0,1,.275.16,1.512,1.512,0,0,1,.222.213,2.823,2.823,0,0,1,.209.279q.1.156.231.363ZM33.484-5.634v2.285h1A1.52,1.52,0,0,0,35-3.432a1.185,1.185,0,0,0,.406-.24,1.086,1.086,0,0,0,.268-.382,1.28,1.28,0,0,0,.1-.508.988.988,0,0,0-.327-.789,1.406,1.406,0,0,0-.947-.283Zm7.1,5.739a2.766,2.766,0,0,1-2.147-.883,3.276,3.276,0,0,1-.806-2.3A3.471,3.471,0,0,1,38.45-5.5a2.87,2.87,0,0,1,2.237-.905,2.7,2.7,0,0,1,2.1.879,3.288,3.288,0,0,1,.8,2.3A3.483,3.483,0,0,1,42.77-.791,2.817,2.817,0,0,1,40.581.105Zm.053-5.845a2.032,2.032,0,0,0-1.613.716,2.773,2.773,0,0,0-.62,1.881,2.792,2.792,0,0,0,.6,1.874,1.971,1.971,0,0,0,1.575.71,2.069,2.069,0,0,0,1.635-.677,2.766,2.766,0,0,0,.6-1.894,2.89,2.89,0,0,0-.58-1.929A1.989,1.989,0,0,0,40.634-5.739ZM52.3-6.3,50.517,0h-.866l-1.3-4.605a2.883,2.883,0,0,1-.1-.642h-.018a3.255,3.255,0,0,1-.114.633L46.817,0H45.96L44.115-6.3h.813l1.34,4.834a3.173,3.173,0,0,1,.105.633H46.4a3.736,3.736,0,0,1,.136-.633L47.925-6.3h.708l1.336,4.869a3.562,3.562,0,0,1,.105.589h.018a3.53,3.53,0,0,1,.119-.606L51.5-6.3Zm.642,6.047v-.87a1.69,1.69,0,0,0,.358.237,2.9,2.9,0,0,0,.439.178A3.5,3.5,0,0,0,54.2-.6a2.585,2.585,0,0,0,.431.04,1.687,1.687,0,0,0,1.017-.253.855.855,0,0,0,.336-.727.854.854,0,0,0-.112-.444,1.262,1.262,0,0,0-.31-.345,3.074,3.074,0,0,0-.468-.3q-.27-.143-.582-.3-.33-.167-.615-.338a2.666,2.666,0,0,1-.5-.378,1.576,1.576,0,0,1-.332-.468,1.449,1.449,0,0,1-.121-.613,1.442,1.442,0,0,1,.189-.749,1.621,1.621,0,0,1,.5-.525,2.251,2.251,0,0,1,.7-.308,3.209,3.209,0,0,1,.8-.1,3.073,3.073,0,0,1,1.358.224v.831a2.461,2.461,0,0,0-1.433-.387,2.356,2.356,0,0,0-.483.051,1.365,1.365,0,0,0-.431.165.954.954,0,0,0-.308.294.782.782,0,0,0-.119.439.9.9,0,0,0,.09.417,1.023,1.023,0,0,0,.266.321,2.648,2.648,0,0,0,.428.281q.253.136.582.3t.642.352a2.933,2.933,0,0,1,.532.409,1.816,1.816,0,0,1,.363.5,1.4,1.4,0,0,1,.134.624,1.582,1.582,0,0,1-.182.789,1.5,1.5,0,0,1-.492.525,2.15,2.15,0,0,1-.714.292,3.911,3.911,0,0,1-.853.09,3.474,3.474,0,0,1-.369-.024q-.22-.024-.448-.07A3.658,3.658,0,0,1,53.266-.1,1.347,1.347,0,0,1,52.939-.255Z" transform="translate(1659 2912.68)" fill="#4c4c4c"/>
    <path id="text86" d="M-65.688-.457V-3.113a5.1,5.1,0,0,0,1.569.909,5.043,5.043,0,0,0,1.71.3,3.792,3.792,0,0,0,.884-.091,2.071,2.071,0,0,0,.631-.253,1.1,1.1,0,0,0,.378-.382.953.953,0,0,0,.125-.477,1.032,1.032,0,0,0-.2-.623,2.144,2.144,0,0,0-.544-.506,5.681,5.681,0,0,0-.818-.448q-.473-.216-1.021-.44a5.211,5.211,0,0,1-2.079-1.419,3.1,3.1,0,0,1-.685-2.025,3.226,3.226,0,0,1,.374-1.6,3.172,3.172,0,0,1,1.017-1.1,4.559,4.559,0,0,1,1.49-.635,7.656,7.656,0,0,1,1.793-.2,10.784,10.784,0,0,1,1.648.112,6.48,6.48,0,0,1,1.324.344v2.482a4,4,0,0,0-.652-.365,5.162,5.162,0,0,0-.726-.261,5.54,5.54,0,0,0-.743-.154,5.258,5.258,0,0,0-.7-.05,3.658,3.658,0,0,0-.83.087,2.129,2.129,0,0,0-.631.245,1.218,1.218,0,0,0-.4.378.9.9,0,0,0-.141.494.943.943,0,0,0,.158.535,1.809,1.809,0,0,0,.448.448,4.757,4.757,0,0,0,.706.415q.415.2.938.419a10.452,10.452,0,0,1,1.282.635,4.559,4.559,0,0,1,.975.76,2.959,2.959,0,0,1,.623.967,3.417,3.417,0,0,1,.216,1.266,3.391,3.391,0,0,1-.378,1.673,3.066,3.066,0,0,1-1.025,1.1,4.445,4.445,0,0,1-1.507.6,8.707,8.707,0,0,1-1.814.183A10.085,10.085,0,0,1-64.157.042,5.625,5.625,0,0,1-65.688-.457ZM-45.144,0h-2.922l-.847-2.648h-4.233L-53.984,0h-2.905l4.333-11.9h3.179Zm-4.383-4.707-1.278-4A5.214,5.214,0,0,1-51-9.778h-.066a4.54,4.54,0,0,1-.208,1.038l-1.295,4.034ZM-35.349-.423a7.849,7.849,0,0,1-3.4.631A5.737,5.737,0,0,1-43.06-1.4a5.886,5.886,0,0,1-1.569-4.292,6.289,6.289,0,0,1,1.764-4.632A6.17,6.17,0,0,1-38.287-12.1a8.561,8.561,0,0,1,2.938.44v2.582a5.207,5.207,0,0,0-2.723-.714,3.612,3.612,0,0,0-2.706,1.054,3.912,3.912,0,0,0-1.029,2.855,3.837,3.837,0,0,0,.971,2.752,3.431,3.431,0,0,0,2.615,1.025,5.577,5.577,0,0,0,2.872-.764ZM-23.288,0h-3.08l-1.851-3.063q-.208-.349-.4-.623A3.459,3.459,0,0,0-29-4.155a1.535,1.535,0,0,0-.407-.3,1.032,1.032,0,0,0-.461-.1h-.722V0h-2.681V-11.9h4.25q4.333,0,4.333,3.237a3.352,3.352,0,0,1-.191,1.15,3.194,3.194,0,0,1-.54.95,3.42,3.42,0,0,1-.843.73,4.345,4.345,0,0,1-1.1.481v.033a1.706,1.706,0,0,1,.515.27,3.685,3.685,0,0,1,.481.436,6.08,6.08,0,0,1,.444.535q.212.286.386.56Zm-7.3-9.895v3.312h1.162a1.927,1.927,0,0,0,1.386-.5,1.662,1.662,0,0,0,.531-1.253q0-1.561-1.868-1.561ZM-15.037,0h-7.139V-11.9h6.865V-9.72h-4.184v2.648H-15.6V-4.9h-3.893v2.723h4.458Zm1.909,0V-11.9h4.217q6.342,0,6.342,5.8A5.867,5.867,0,0,1-4.3-1.66,6.382,6.382,0,0,1-8.911,0Zm2.681-9.72v7.545h1.328A3.589,3.589,0,0,0-6.383-3.221a3.968,3.968,0,0,0,.992-2.847,3.6,3.6,0,0,0-.984-2.677,3.75,3.75,0,0,0-2.76-.975ZM12.63-.423a7.849,7.849,0,0,1-3.4.631A5.737,5.737,0,0,1,4.918-1.4,5.886,5.886,0,0,1,3.349-5.694a6.289,6.289,0,0,1,1.764-4.632A6.17,6.17,0,0,1,9.691-12.1a8.561,8.561,0,0,1,2.938.44v2.582a5.207,5.207,0,0,0-2.723-.714A3.612,3.612,0,0,0,7.2-8.741,3.912,3.912,0,0,0,6.172-5.885a3.837,3.837,0,0,0,.971,2.752A3.431,3.431,0,0,0,9.758-2.108a5.577,5.577,0,0,0,2.872-.764ZM25.006,0H22.317V-4.848H17.386V0H14.7V-11.9h2.681v4.748h4.931V-11.9h2.689ZM38.2,0H35.274l-.847-2.648H30.194L29.356,0H26.45l4.333-11.9h3.179ZM33.813-4.707l-1.278-4a5.214,5.214,0,0,1-.2-1.071h-.066a4.54,4.54,0,0,1-.208,1.038L30.767-4.707Zm8.55.606V0H39.682V-11.9h4.2q4.5,0,4.5,3.793a3.64,3.64,0,0,1-1.291,2.9A5.114,5.114,0,0,1,43.641-4.1Zm0-5.744v3.71h1.054q2.142,0,2.142-1.876,0-1.834-2.142-1.834ZM57.263,0H50.124V-11.9h6.865V-9.72H52.805v2.648H56.7V-4.9H52.805v2.723h4.458Zm9,0H59.172V-11.9h2.681v9.729h4.408Z" transform="translate(1661 2898.295)" fill="#4c4c4c"/>
  </g>
</svg>
