<svg xmlns="http://www.w3.org/2000/svg" width="116.236" height="130.914" viewBox="0 0 116.236 130.914">
  <g id="logo-3" transform="translate(-1421.882 -2780)">
    <g id="Group_10" data-name="Group 10" transform="translate(-14.401 -47.327)">
      <path id="path14" d="M0,0V60.441l8.447-12.92V8.441H21.588L26.028,0Z" transform="translate(1490.366 2857.44)" fill="#4c4c4c"/>
      <path id="path18" d="M0,0H-7.087l-9.968,8.443h25.5V-16.735L0-9.581Z" transform="translate(1476.987 2844.061)" fill="#4c4c4c"/>
      <path id="path22" d="M0,0H-7.087V-9.581l-8.447-7.153V8.443h25.5Z" transform="translate(1505.9 2844.061)" fill="#4c4c4c"/>
      <path id="path26" d="M0,0H13.147V39.085L21.593,52V-8.441H-4.439Z" transform="translate(1463.84 2865.882)" fill="#4c4c4c"/>
    </g>
    <path id="text30" d="M-47.817,0h-2.689V-4.848h-4.931V0h-2.681V-11.9h2.681v4.748h4.931V-11.9h2.689Zm7.753.208a5.541,5.541,0,0,1-4.167-1.664,5.975,5.975,0,0,1-1.61-4.337,6.4,6.4,0,0,1,1.635-4.565A5.662,5.662,0,0,1-39.873-12.1a5.4,5.4,0,0,1,4.121,1.668,6.151,6.151,0,0,1,1.573,4.4A6.3,6.3,0,0,1-35.81-1.511,5.6,5.6,0,0,1-40.064.208Zm.116-10a2.7,2.7,0,0,0-2.241,1.058,4.413,4.413,0,0,0-.83,2.8,4.332,4.332,0,0,0,.83,2.8,2.66,2.66,0,0,0,2.175,1.029,2.686,2.686,0,0,0,2.2-1A4.284,4.284,0,0,0-37-5.885a4.642,4.642,0,0,0-.789-2.88A2.571,2.571,0,0,0-39.948-9.795ZM-25.114,0H-32.2V-11.9h2.681v9.729h4.408Zm9.5-11.9-3.876,7.67V0h-2.681V-4.184l-3.777-7.72h3.063l1.917,4.441q.05.125.274.971h.033a4.324,4.324,0,0,1,.257-.938l1.951-4.474ZM-1.042-.423a7.849,7.849,0,0,1-3.4.631A5.737,5.737,0,0,1-8.753-1.4a5.886,5.886,0,0,1-1.569-4.292,6.289,6.289,0,0,1,1.764-4.632A6.17,6.17,0,0,1-3.98-12.1a8.561,8.561,0,0,1,2.938.44v2.582a5.207,5.207,0,0,0-2.723-.714A3.612,3.612,0,0,0-6.47-8.741,3.912,3.912,0,0,0-7.5-5.885a3.837,3.837,0,0,0,.971,2.752A3.431,3.431,0,0,0-3.914-2.108a5.577,5.577,0,0,0,2.872-.764ZM11.335,0H8.645V-4.848H3.715V0H1.033V-11.9H3.715v4.748H8.645V-11.9h2.689ZM23.761-5.155q0,5.362-5,5.362-4.848,0-4.848-5.238V-11.9h2.689V-5q0,2.889,2.258,2.889,2.216,0,2.216-2.789V-11.9h2.681ZM36.337,0h-3.08L31.406-3.063q-.208-.349-.4-.623a3.459,3.459,0,0,0-.386-.469,1.535,1.535,0,0,0-.407-.3,1.032,1.032,0,0,0-.461-.1h-.722V0H26.351V-11.9H30.6q4.333,0,4.333,3.237a3.352,3.352,0,0,1-.191,1.15,3.194,3.194,0,0,1-.54.95,3.42,3.42,0,0,1-.843.73,4.345,4.345,0,0,1-1.1.481v.033a1.706,1.706,0,0,1,.515.27,3.685,3.685,0,0,1,.481.436,6.08,6.08,0,0,1,.444.535q.212.286.386.56Zm-7.3-9.895v3.312h1.162a1.927,1.927,0,0,0,1.386-.5,1.662,1.662,0,0,0,.531-1.253q0-1.561-1.868-1.561ZM45.741-.423a7.849,7.849,0,0,1-3.4.631A5.737,5.737,0,0,1,38.03-1.4a5.886,5.886,0,0,1-1.569-4.292,6.289,6.289,0,0,1,1.764-4.632A6.17,6.17,0,0,1,42.8-12.1a8.561,8.561,0,0,1,2.938.44v2.582a5.207,5.207,0,0,0-2.723-.714,3.612,3.612,0,0,0-2.706,1.054,3.912,3.912,0,0,0-1.029,2.855,3.837,3.837,0,0,0,.971,2.752,3.431,3.431,0,0,0,2.615,1.025,5.577,5.577,0,0,0,2.872-.764ZM58.118,0H55.428V-4.848H50.5V0H47.817V-11.9H50.5v4.748h4.931V-11.9h2.689Z" transform="translate(1480 2895.816)" fill="#4c4c4c"/>
    <path id="text34" d="M-43.5.105a2.766,2.766,0,0,1-2.147-.883,3.276,3.276,0,0,1-.806-2.3A3.471,3.471,0,0,1-45.633-5.5,2.87,2.87,0,0,1-43.4-6.407a2.7,2.7,0,0,1,2.1.879,3.288,3.288,0,0,1,.8,2.3,3.483,3.483,0,0,1-.817,2.439A2.817,2.817,0,0,1-43.5.105Zm.053-5.845a2.032,2.032,0,0,0-1.613.716,2.773,2.773,0,0,0-.62,1.881,2.792,2.792,0,0,0,.6,1.874,1.971,1.971,0,0,0,1.575.71,2.069,2.069,0,0,0,1.635-.677,2.766,2.766,0,0,0,.6-1.894,2.89,2.89,0,0,0-.58-1.929A1.989,1.989,0,0,0-43.449-5.739Zm7.392.105h-2.461v2.18h2.276v.664h-2.276V0h-.738V-6.3h3.2Zm7.387,0h-1.819V0h-.738V-5.634h-1.815V-6.3h4.373ZM-22.944,0h-.738V-2.874h-3.261V0h-.738V-6.3h.738v2.764h3.261V-6.3h.738Zm4.992,0h-3.34V-6.3h3.2v.668h-2.461v2.1h2.276v.664h-2.276V-.668h2.6Zm3.384-.255v-.87a1.69,1.69,0,0,0,.358.237,2.9,2.9,0,0,0,.439.178,3.5,3.5,0,0,0,.464.112,2.585,2.585,0,0,0,.431.04,1.687,1.687,0,0,0,1.017-.253.855.855,0,0,0,.336-.727.854.854,0,0,0-.112-.444,1.262,1.262,0,0,0-.31-.345,3.074,3.074,0,0,0-.468-.3q-.27-.143-.582-.3-.33-.167-.615-.338a2.666,2.666,0,0,1-.5-.378,1.576,1.576,0,0,1-.332-.468,1.449,1.449,0,0,1-.121-.613,1.442,1.442,0,0,1,.189-.749,1.621,1.621,0,0,1,.5-.525,2.251,2.251,0,0,1,.7-.308,3.209,3.209,0,0,1,.8-.1,3.073,3.073,0,0,1,1.358.224v.831a2.461,2.461,0,0,0-1.433-.387,2.356,2.356,0,0,0-.483.051,1.365,1.365,0,0,0-.431.165.954.954,0,0,0-.308.294.782.782,0,0,0-.119.439.9.9,0,0,0,.09.417,1.023,1.023,0,0,0,.266.321A2.648,2.648,0,0,0-13-3.771q.253.136.582.3t.642.352a2.933,2.933,0,0,1,.532.409,1.816,1.816,0,0,1,.363.5,1.4,1.4,0,0,1,.134.624,1.582,1.582,0,0,1-.182.789,1.5,1.5,0,0,1-.492.525,2.15,2.15,0,0,1-.714.292,3.911,3.911,0,0,1-.853.09,3.474,3.474,0,0,1-.369-.024q-.22-.024-.448-.07A3.658,3.658,0,0,1-14.24-.1,1.347,1.347,0,0,1-14.568-.255ZM-4.614,0h-.817L-6.1-1.767H-8.771L-9.4,0h-.822L-7.8-6.3h.765ZM-6.341-2.43-7.33-5.115a2.571,2.571,0,0,1-.1-.422h-.018a2.354,2.354,0,0,1-.1.422l-.98,2.685ZM.483-.264a3.7,3.7,0,0,1-1.74.369A2.806,2.806,0,0,1-3.41-.76a3.194,3.194,0,0,1-.809-2.272,3.348,3.348,0,0,1,.91-2.443A3.087,3.087,0,0,1-1-6.407a3.7,3.7,0,0,1,1.485.259v.787a3.012,3.012,0,0,0-1.494-.378,2.293,2.293,0,0,0-1.76.725,2.732,2.732,0,0,0-.675,1.938,2.6,2.6,0,0,0,.631,1.835A2.146,2.146,0,0,0-1.16-.558,3.1,3.1,0,0,0,.483-.98ZM6.284,0H5.405L4.351-1.767a3.848,3.848,0,0,0-.281-.42A1.6,1.6,0,0,0,3.79-2.47a.967.967,0,0,0-.308-.16,1.265,1.265,0,0,0-.371-.051H2.5V0H1.767V-6.3H3.647a2.68,2.68,0,0,1,.762.1,1.706,1.706,0,0,1,.606.314,1.46,1.46,0,0,1,.4.525,1.741,1.741,0,0,1,.145.736,1.772,1.772,0,0,1-.1.6,1.578,1.578,0,0,1-.281.49,1.7,1.7,0,0,1-.439.367,2.243,2.243,0,0,1-.578.235v.018a1.329,1.329,0,0,1,.275.16,1.512,1.512,0,0,1,.222.213,2.823,2.823,0,0,1,.209.279q.1.156.231.363ZM2.5-5.634v2.285h1a1.52,1.52,0,0,0,.512-.083,1.185,1.185,0,0,0,.406-.24,1.086,1.086,0,0,0,.268-.382,1.28,1.28,0,0,0,.1-.508.988.988,0,0,0-.327-.789,1.406,1.406,0,0,0-.947-.283ZM10.49,0H7.15V-6.3h3.2v.668H7.888v2.1h2.276v.664H7.888V-.668h2.6ZM11.7,0V-6.3h1.74q3.331,0,3.331,3.072a3.1,3.1,0,0,1-.925,2.344A3.432,3.432,0,0,1,13.373,0Zm.738-5.634V-.668h.94a2.669,2.669,0,0,0,1.929-.664A2.487,2.487,0,0,0,16-3.212q0-2.421-2.575-2.421ZM24.768-.264a3.7,3.7,0,0,1-1.74.369A2.806,2.806,0,0,1,20.874-.76a3.194,3.194,0,0,1-.809-2.272,3.348,3.348,0,0,1,.91-2.443,3.087,3.087,0,0,1,2.307-.932,3.7,3.7,0,0,1,1.485.259v.787a3.012,3.012,0,0,0-1.494-.378,2.293,2.293,0,0,0-1.76.725,2.732,2.732,0,0,0-.675,1.938,2.6,2.6,0,0,0,.631,1.835,2.146,2.146,0,0,0,1.655.683A3.1,3.1,0,0,0,24.768-.98Zm5.8.264h-.879L28.635-1.767a3.848,3.848,0,0,0-.281-.42,1.6,1.6,0,0,0-.279-.283.967.967,0,0,0-.308-.16,1.265,1.265,0,0,0-.371-.051h-.606V0h-.738V-6.3h1.881a2.68,2.68,0,0,1,.762.1,1.706,1.706,0,0,1,.606.314,1.46,1.46,0,0,1,.4.525,1.741,1.741,0,0,1,.145.736,1.772,1.772,0,0,1-.1.6,1.578,1.578,0,0,1-.281.49,1.7,1.7,0,0,1-.439.367,2.243,2.243,0,0,1-.578.235v.018a1.329,1.329,0,0,1,.275.16,1.512,1.512,0,0,1,.222.213,2.823,2.823,0,0,1,.209.279q.1.156.231.363ZM26.789-5.634v2.285h1a1.52,1.52,0,0,0,.512-.083,1.185,1.185,0,0,0,.406-.24,1.086,1.086,0,0,0,.268-.382,1.28,1.28,0,0,0,.1-.508.988.988,0,0,0-.327-.789,1.406,1.406,0,0,0-.947-.283Zm7.1,5.739A2.766,2.766,0,0,1,31.74-.778a3.276,3.276,0,0,1-.806-2.3A3.471,3.471,0,0,1,31.755-5.5a2.87,2.87,0,0,1,2.237-.905,2.7,2.7,0,0,1,2.1.879,3.288,3.288,0,0,1,.8,2.3,3.483,3.483,0,0,1-.817,2.439A2.817,2.817,0,0,1,33.886.105Zm.053-5.845a2.032,2.032,0,0,0-1.613.716,2.773,2.773,0,0,0-.62,1.881,2.792,2.792,0,0,0,.6,1.874,1.971,1.971,0,0,0,1.575.71,2.069,2.069,0,0,0,1.635-.677,2.766,2.766,0,0,0,.6-1.894,2.89,2.89,0,0,0-.58-1.929A1.989,1.989,0,0,0,33.939-5.739Zm3.9,5.484v-.87a1.69,1.69,0,0,0,.358.237,2.9,2.9,0,0,0,.439.178A3.5,3.5,0,0,0,39.1-.6a2.585,2.585,0,0,0,.431.04,1.687,1.687,0,0,0,1.017-.253.855.855,0,0,0,.336-.727.854.854,0,0,0-.112-.444,1.262,1.262,0,0,0-.31-.345,3.074,3.074,0,0,0-.468-.3q-.27-.143-.582-.3-.33-.167-.615-.338a2.666,2.666,0,0,1-.5-.378,1.576,1.576,0,0,1-.332-.468,1.449,1.449,0,0,1-.121-.613,1.442,1.442,0,0,1,.189-.749,1.621,1.621,0,0,1,.5-.525,2.251,2.251,0,0,1,.7-.308,3.209,3.209,0,0,1,.8-.1,3.073,3.073,0,0,1,1.358.224v.831a2.461,2.461,0,0,0-1.433-.387,2.356,2.356,0,0,0-.483.051,1.365,1.365,0,0,0-.431.165.954.954,0,0,0-.308.294.782.782,0,0,0-.119.439.9.9,0,0,0,.09.417,1.023,1.023,0,0,0,.266.321,2.648,2.648,0,0,0,.428.281q.253.136.582.3t.642.352a2.933,2.933,0,0,1,.532.409,1.816,1.816,0,0,1,.363.5,1.4,1.4,0,0,1,.134.624,1.582,1.582,0,0,1-.182.789,1.5,1.5,0,0,1-.492.525,2.15,2.15,0,0,1-.714.292,3.911,3.911,0,0,1-.853.09,3.474,3.474,0,0,1-.369-.024q-.22-.024-.448-.07A3.658,3.658,0,0,1,38.164-.1,1.347,1.347,0,0,1,37.837-.255Zm4.781,0v-.87a1.69,1.69,0,0,0,.358.237,2.9,2.9,0,0,0,.439.178,3.5,3.5,0,0,0,.464.112,2.585,2.585,0,0,0,.431.04,1.687,1.687,0,0,0,1.017-.253.855.855,0,0,0,.336-.727.854.854,0,0,0-.112-.444,1.262,1.262,0,0,0-.31-.345,3.074,3.074,0,0,0-.468-.3q-.27-.143-.582-.3-.33-.167-.615-.338a2.666,2.666,0,0,1-.5-.378,1.576,1.576,0,0,1-.332-.468,1.449,1.449,0,0,1-.121-.613,1.442,1.442,0,0,1,.189-.749,1.621,1.621,0,0,1,.5-.525,2.251,2.251,0,0,1,.7-.308,3.209,3.209,0,0,1,.8-.1,3.073,3.073,0,0,1,1.358.224v.831a2.461,2.461,0,0,0-1.433-.387,2.356,2.356,0,0,0-.483.051,1.365,1.365,0,0,0-.431.165.954.954,0,0,0-.308.294.782.782,0,0,0-.119.439.9.9,0,0,0,.09.417,1.023,1.023,0,0,0,.266.321,2.648,2.648,0,0,0,.428.281q.253.136.582.3t.642.352a2.933,2.933,0,0,1,.532.409,1.816,1.816,0,0,1,.363.5,1.4,1.4,0,0,1,.134.624,1.582,1.582,0,0,1-.182.789,1.5,1.5,0,0,1-.492.525,2.15,2.15,0,0,1-.714.292,3.911,3.911,0,0,1-.853.09,3.474,3.474,0,0,1-.369-.024q-.22-.024-.448-.07A3.658,3.658,0,0,1,42.946-.1,1.347,1.347,0,0,1,42.618-.255Z" transform="translate(1481 2910.808)" fill="#4c4c4c"/>
  </g>
</svg>
