<svg xmlns="http://www.w3.org/2000/svg" width="91.139" height="90.133" viewBox="0 0 91.139 90.133">
  <g id="logo-alt" transform="translate(-1569.572 -2940.073)">
    <g id="Group_5" data-name="Group 5" transform="translate(1284.149 3446.665)">
      <g id="g40" transform="translate(356.707 -494.708)">
        <path id="path42" d="M0-10.656-9.777-15.73a3.427,3.427,0,0,0-2.623-.157,1.81,1.81,0,0,0-1.379,1.569V10.011c0,.971,1.123,1.757,2.508,1.757s2.51-.786,2.51-1.757V-10.83L-4-8.36V11.5l-14.509,4.024V-19.355a1.664,1.664,0,0,0-1.019-1.412l-5.011-2.6V-28.31h3.245c1.039,0,1.881-.589,1.881-1.317s-.842-1.318-1.881-1.318h-3.245v-3.324c0-.728-.843-1.317-1.881-1.317S-28.3-35-28.3-34.269v3.324h-3.247c-1.038,0-1.879.59-1.88,1.318s.842,1.317,1.88,1.317H-28.3v4.949l-5.012,2.6a1.665,1.665,0,0,0-1.017,1.412V15.526L-48.84,11.5V-8.36l4.763-2.471V10.011c0,.971,1.123,1.757,2.508,1.757s2.507-.787,2.506-1.757V-14.317a1.811,1.811,0,0,0-1.381-1.569,3.426,3.426,0,0,0-2.619.157l-9.777,5.074a1.663,1.663,0,0,0-1.016,1.412V12.7a1.9,1.9,0,0,0,1.585,1.634l19.524,5.415a3.446,3.446,0,0,0,2.333-.18,1.7,1.7,0,0,0,1.1-1.454V-18.468l2.9-1.5,2.9,1.5V18.111a1.7,1.7,0,0,0,1.1,1.454,3.3,3.3,0,0,0,1.409.3,3.494,3.494,0,0,0,.924-.123L-.569,14.33A1.9,1.9,0,0,0,1.016,12.7V-9.244A1.663,1.663,0,0,0,0-10.656" transform="translate(0 23.701)" fill="#3b3b3b"/>
      </g>
    </g>
    <path id="text46" d="M9.313-.4a7.388,7.388,0,0,1-3.2.6A5.4,5.4,0,0,1,2.055-1.32,5.54,5.54,0,0,1,.578-5.359a5.919,5.919,0,0,1,1.66-4.359A5.807,5.807,0,0,1,6.547-11.39a8.058,8.058,0,0,1,2.766.414v2.43A4.9,4.9,0,0,0,6.75-9.219a3.4,3.4,0,0,0-2.55.992,3.682,3.682,0,0,0-.969,2.688,3.611,3.611,0,0,0,.914,2.59,3.229,3.229,0,0,0,2.461.965,5.249,5.249,0,0,0,2.7-.719Zm11.8.4h-2.75l-.8-2.492H13.586L12.8,0H10.063l4.078-11.2h2.992ZM16.992-4.43l-1.2-3.77a4.907,4.907,0,0,1-.189-1h-.062a4.273,4.273,0,0,1-.2.977l-1.219,3.8ZM29.266-9.148h-3.2V0H23.539V-9.148h-3.18V-11.2h8.906ZM40.469,0H37.938V-4.562H33.3V0H30.773V-11.2H33.3v4.469h4.641V-11.2h2.531ZM49.75,0H43.031V-11.2h6.461v2.055H45.555v2.492h3.664v2.047H45.555v2.563h4.2Zm1.8,0V-11.2h3.969q5.969,0,5.969,5.461a5.522,5.522,0,0,1-1.629,4.18A6.007,6.007,0,0,1,55.516,0Zm2.52-9.148v7.1h1.25a3.378,3.378,0,0,0,2.574-.984,3.735,3.735,0,0,0,.934-2.68A3.388,3.388,0,0,0,57.9-8.23a3.529,3.529,0,0,0-2.6-.918ZM72.742,0h-2.9L68.1-2.883q-.2-.328-.375-.586a3.255,3.255,0,0,0-.363-.441,1.445,1.445,0,0,0-.383-.281.972.972,0,0,0-.434-.1h-.68V0H63.344V-11.2h4q4.078,0,4.078,3.047a3.155,3.155,0,0,1-.18,1.082,3.006,3.006,0,0,1-.508.9,3.219,3.219,0,0,1-.793.688,4.089,4.089,0,0,1-1.035.453V-5a1.606,1.606,0,0,1,.484.254,3.469,3.469,0,0,1,.453.41,5.724,5.724,0,0,1,.418.5q.2.27.363.527ZM65.867-9.312V-6.2h1.094a1.813,1.813,0,0,0,1.3-.469,1.564,1.564,0,0,0,.5-1.18q0-1.469-1.758-1.469ZM83.641,0h-2.75l-.8-2.492H76.109L75.32,0H72.586l4.078-11.2h2.992ZM79.516-4.43l-1.2-3.77a4.907,4.907,0,0,1-.188-1h-.062a4.273,4.273,0,0,1-.2.977l-1.219,3.8ZM91.711,0H85.039V-11.2h2.523v9.156H91.71Z" transform="translate(1569 3016.821)" fill="#3b3b3b"/>
    <path id="text50" d="M.473-.227V-1a1.5,1.5,0,0,0,.318.211,2.579,2.579,0,0,0,.391.158,3.11,3.11,0,0,0,.412.1A2.3,2.3,0,0,0,1.977-.5a1.5,1.5,0,0,0,.9-.225.76.76,0,0,0,.3-.646.759.759,0,0,0-.1-.395,1.122,1.122,0,0,0-.277-.3,2.733,2.733,0,0,0-.416-.266q-.24-.127-.518-.268-.293-.148-.547-.3a2.37,2.37,0,0,1-.441-.336,1.4,1.4,0,0,1-.295-.416A1.288,1.288,0,0,1,.48-4.2a1.281,1.281,0,0,1,.168-.666,1.441,1.441,0,0,1,.441-.467,2,2,0,0,1,.623-.273,2.853,2.853,0,0,1,.713-.09,2.732,2.732,0,0,1,1.207.2v.738A2.188,2.188,0,0,0,2.359-5.1a2.094,2.094,0,0,0-.43.045,1.214,1.214,0,0,0-.383.146.848.848,0,0,0-.273.262.7.7,0,0,0-.105.391.8.8,0,0,0,.08.371.91.91,0,0,0,.236.285,2.354,2.354,0,0,0,.381.25q.225.121.518.266t.57.313a2.607,2.607,0,0,1,.473.363,1.614,1.614,0,0,1,.322.441,1.241,1.241,0,0,1,.119.555,1.407,1.407,0,0,1-.162.7,1.33,1.33,0,0,1-.437.467,1.911,1.911,0,0,1-.635.26,3.476,3.476,0,0,1-.758.08A3.088,3.088,0,0,1,1.547.072q-.2-.021-.4-.062a3.251,3.251,0,0,1-.385-.1A1.2,1.2,0,0,1,.473-.227ZM9.32,0H8.594L8-1.57H5.625L5.066,0h-.73L6.484-5.6h.68ZM7.785-2.16,6.906-4.547a2.285,2.285,0,0,1-.086-.375H6.8a2.092,2.092,0,0,1-.09.375L5.844-2.16ZM13.8-.234a3.285,3.285,0,0,1-1.547.328,2.5,2.5,0,0,1-1.914-.77A2.84,2.84,0,0,1,9.621-2.7a2.976,2.976,0,0,1,.809-2.172A2.744,2.744,0,0,1,12.48-5.7a3.288,3.288,0,0,1,1.32.23v.7a2.677,2.677,0,0,0-1.327-.33,2.038,2.038,0,0,0-1.564.645,2.428,2.428,0,0,0-.6,1.723,2.31,2.31,0,0,0,.56,1.632,1.907,1.907,0,0,0,1.471.6A2.759,2.759,0,0,0,13.8-.871ZM18.957,0h-.781l-.937-1.57a3.42,3.42,0,0,0-.25-.373A1.425,1.425,0,0,0,16.74-2.2a.859.859,0,0,0-.273-.143,1.124,1.124,0,0,0-.33-.045H15.6V0h-.656V-5.6h1.672a2.383,2.383,0,0,1,.678.092,1.516,1.516,0,0,1,.539.279,1.3,1.3,0,0,1,.357.467,1.548,1.548,0,0,1,.129.654,1.576,1.576,0,0,1-.088.537,1.4,1.4,0,0,1-.25.436,1.515,1.515,0,0,1-.391.326,1.994,1.994,0,0,1-.514.209v.016a1.181,1.181,0,0,1,.244.143,1.344,1.344,0,0,1,.2.189A2.509,2.509,0,0,1,17.706-2q.092.139.2.322ZM15.6-5.008v2.031h.891a1.351,1.351,0,0,0,.455-.074,1.054,1.054,0,0,0,.361-.213.965.965,0,0,0,.238-.34,1.138,1.138,0,0,0,.086-.451.878.878,0,0,0-.291-.7,1.25,1.25,0,0,0-.842-.252ZM22.7,0H19.727V-5.6H22.57v.594H20.383v1.863h2.023v.59H20.383V-.594H22.7Zm1.078,0V-5.6H25.32q2.961,0,2.961,2.73a2.752,2.752,0,0,1-.822,2.084,3.05,3.05,0,0,1-2.2.787Zm.656-5.008V-.594h.836a2.372,2.372,0,0,0,1.715-.59A2.211,2.211,0,0,0,27.6-2.856q0-2.152-2.289-2.152ZM35.387-.234A3.285,3.285,0,0,1,33.84.094a2.5,2.5,0,0,1-1.914-.77,2.84,2.84,0,0,1-.719-2.02,2.976,2.976,0,0,1,.809-2.172,2.744,2.744,0,0,1,2.05-.832,3.288,3.288,0,0,1,1.32.23v.7a2.677,2.677,0,0,0-1.327-.33,2.038,2.038,0,0,0-1.564.645,2.428,2.428,0,0,0-.6,1.723,2.31,2.31,0,0,0,.56,1.632,1.907,1.907,0,0,0,1.471.6,2.759,2.759,0,0,0,1.461-.375ZM40.738,0h-.656V-2.555h-2.9V0h-.656V-5.6h.656v2.457h2.9V-5.6h.656ZM46.3-2.266q0,2.36-2.124,2.36-2.039,0-2.039-2.27V-5.6h.656v3.383Q42.793-.5,44.246-.5q1.4,0,1.4-1.664V-5.6H46.3ZM51.719,0h-.781L50-1.57a3.42,3.42,0,0,0-.25-.373A1.425,1.425,0,0,0,49.5-2.2a.859.859,0,0,0-.273-.143,1.124,1.124,0,0,0-.33-.045h-.539V0H47.7V-5.6h1.672a2.383,2.383,0,0,1,.678.092,1.516,1.516,0,0,1,.539.279,1.3,1.3,0,0,1,.357.467,1.548,1.548,0,0,1,.129.654,1.576,1.576,0,0,1-.088.537,1.4,1.4,0,0,1-.25.436,1.515,1.515,0,0,1-.391.326,1.994,1.994,0,0,1-.514.209v.016a1.181,1.181,0,0,1,.244.143,1.344,1.344,0,0,1,.2.189A2.511,2.511,0,0,1,50.462-2q.092.139.2.322Zm-3.36-5.008v2.031h.891a1.351,1.351,0,0,0,.455-.074,1.054,1.054,0,0,0,.361-.213A.965.965,0,0,0,50.3-3.6a1.138,1.138,0,0,0,.086-.451.878.878,0,0,0-.291-.7A1.25,1.25,0,0,0,49.253-5ZM56.188-.234a3.285,3.285,0,0,1-1.547.328,2.5,2.5,0,0,1-1.914-.77,2.84,2.84,0,0,1-.719-2.02,2.976,2.976,0,0,1,.809-2.172,2.744,2.744,0,0,1,2.05-.832,3.288,3.288,0,0,1,1.32.23v.7a2.677,2.677,0,0,0-1.328-.33,2.038,2.038,0,0,0-1.564.645,2.428,2.428,0,0,0-.6,1.723A2.31,2.31,0,0,0,53.256-1.1a1.907,1.907,0,0,0,1.471.6,2.759,2.759,0,0,0,1.461-.375ZM61.539,0h-.656V-2.555h-2.9V0h-.656V-5.6h.656v2.457h2.9V-5.6h.656Z" transform="translate(1584.355 3030.109)" fill="#3b3b3b"/>
  </g>
</svg>
