<svg xmlns="http://www.w3.org/2000/svg" width="153.695" height="123.9" viewBox="0 0 153.695 123.9">
  <g id="logo-1" transform="translate(-1036.654 -3075.175)">
    <g id="Group_2" data-name="Group 2" transform="translate(943.556 3286.665)">
      <g id="g116" transform="translate(215.469 -166.466)">
        <path id="path118" d="M30.225,16.441a15.175,15.175,0,0,1,5.961,12.25,15.992,15.992,0,0,1-.138,2.109H-8.562A20.45,20.45,0,0,0-14.4,18.613a11.157,11.157,0,0,1,5.625-1.523,10.819,10.819,0,0,1,1.506.107,2.845,2.845,0,0,0,2.715-1.22A3.491,3.491,0,0,0-4.128,12.8,14.017,14.017,0,0,1-4.94,8.046C-4.94.778.463-5.135,7.1-5.135a11.007,11.007,0,0,1,3.18.463,2.885,2.885,0,0,0,3.448-1.7,11.914,11.914,0,0,1,10.815-7.386c6.637,0,12.037,5.913,12.037,13.182a13.456,13.456,0,0,1-6.153,11.5A3.294,3.294,0,0,0,28.92,13.62a3.347,3.347,0,0,0,1.3,2.821M-23.373,30.8H-95.907A15.551,15.551,0,0,1-98.1,22.808c0-6.983,4.543-12.976,10.8-14.251A3.165,3.165,0,0,0-84.88,5.482c.318-10.2,7.879-18.189,17.211-18.189,9.18,0,16.738,7.853,17.206,17.878A3.321,3.321,0,0,0-49.17,7.689a2.755,2.755,0,0,0,2.617.386A7.587,7.587,0,0,1-43.91,7.6c4.6,0,8.347,4.1,8.347,9.133a7.977,7.977,0,0,1-.055.987,3.384,3.384,0,0,0,1.158,3.026,2.751,2.751,0,0,0,2.98.369,11.237,11.237,0,0,1,4.949-1.141c5.935,0,10.894,4.664,11.976,10.822Zm-5.069-64.193C-15.2-33.393-3.55-23.759.2-10.108-6.288-7.141-10.863-.122-10.863,8.046a21.485,21.485,0,0,0,.163,2.672,17.006,17.006,0,0,0-9.221,4.148,16.722,16.722,0,0,0-4.854-1.277c0-.013,0-.026,0-.041V-8.628h3.837a3.018,3.018,0,0,0,2.872-3.143,3.017,3.017,0,0,0-2.872-3.143h-3.837V-21.1a3.017,3.017,0,0,0-2.872-3.143A3.019,3.019,0,0,0-30.517-21.1v6.184h-3.836a3.017,3.017,0,0,0-2.874,3.143,3.019,3.019,0,0,0,2.874,3.143h3.836V11.363C-32.524,5.393-37.767,1.12-43.91,1.12c-.353,0-.706.015-1.055.043a25.438,25.438,0,0,0-10.269-16.4c5.031-11.12,15.285-18.161,26.792-18.161M42.509-.574c0-10.843-8.058-19.665-17.961-19.665a17.488,17.488,0,0,0-14.982,8.8A16.73,16.73,0,0,0,7.1-11.617c-.379,0-.754.015-1.125.041-4.383-16.566-18.432-28.3-34.422-28.3-13.831,0-26.152,8.493-32.157,21.887a21.383,21.383,0,0,0-7.07-1.2c-11.778,0-21.458,9.472-22.946,21.983-7.891,2.706-13.41,10.76-13.41,20.015A22.293,22.293,0,0,0-99.691,36.1,2.876,2.876,0,0,0-97.4,37.282H38.407s.005,0,.007,0h.01a2.828,2.828,0,0,0,1.956-.823,3.2,3.2,0,0,0,.42-.508,3.318,3.318,0,0,0,.458-1.028,23.159,23.159,0,0,0,.852-6.231,22.317,22.317,0,0,0-5.443-14.754A20.586,20.586,0,0,0,42.509-.574" transform="translate(-18.346 -5.149)" fill="#4c4c4c"/>
      </g>
    </g>
    <path id="text122" d="M-68.535,0V-11.9h4.217q6.342,0,6.342,5.8A5.867,5.867,0,0,1-59.708-1.66,6.382,6.382,0,0,1-64.319,0Zm2.681-9.72v7.545h1.328a3.589,3.589,0,0,0,2.735-1.046A3.968,3.968,0,0,0-60.8-6.068a3.6,3.6,0,0,0-.984-2.677,3.75,3.75,0,0,0-2.76-.975ZM-45.808,0H-48.73l-.847-2.648H-53.81L-54.648,0h-2.905l4.333-11.9h3.179Zm-4.383-4.707-1.278-4a5.214,5.214,0,0,1-.2-1.071h-.066a4.54,4.54,0,0,1-.208,1.038l-1.295,4.034Zm20.827-7.2L-32.51,0h-2.972l-1.976-7.637a6.368,6.368,0,0,1-.191-1.336h-.033A8.12,8.12,0,0,1-37.9-7.637L-39.923,0h-3.1l-3.129-11.9h2.93l1.677,7.927a9.463,9.463,0,0,1,.158,1.361h.05a6.589,6.589,0,0,1,.241-1.395l2.158-7.894h2.872l1.951,7.994a9.788,9.788,0,0,1,.191,1.278h.033a8.57,8.57,0,0,1,.174-1.328L-32.07-11.9ZM-17.145,0h-2.706l-4.906-7.479a10.815,10.815,0,0,1-.6-.988h-.033q.066.631.066,1.926V0h-2.532V-11.9h2.889l4.723,7.247q.324.49.6.971h.033a12.727,12.727,0,0,1-.066-1.635V-11.9h2.532ZM-4.7.208A5.541,5.541,0,0,1-8.869-1.457a5.975,5.975,0,0,1-1.61-4.337,6.4,6.4,0,0,1,1.635-4.565A5.662,5.662,0,0,1-4.511-12.1,5.4,5.4,0,0,1-.39-10.434a6.151,6.151,0,0,1,1.573,4.4A6.3,6.3,0,0,1-.448-1.511,5.6,5.6,0,0,1-4.7.208Zm.116-10A2.7,2.7,0,0,0-6.827-8.737a4.413,4.413,0,0,0-.83,2.8,4.332,4.332,0,0,0,.83,2.8A2.66,2.66,0,0,0-4.653-2.108a2.686,2.686,0,0,0,2.2-1,4.284,4.284,0,0,0,.813-2.777,4.642,4.642,0,0,0-.789-2.88A2.571,2.571,0,0,0-4.586-9.795ZM10.04-9.72H5.84V-6.8H9.7v2.175H5.84V0H3.158V-11.9H10.04ZM26.459-.8a8.566,8.566,0,0,1-4.333,1A6.267,6.267,0,0,1,17.6-1.382a5.783,5.783,0,0,1-1.656-4.379,6.113,6.113,0,0,1,1.81-4.574A6.593,6.593,0,0,1,22.566-12.1a9.779,9.779,0,0,1,3.337.523v2.515a6.632,6.632,0,0,0-3.37-.8,3.618,3.618,0,0,0-2.719,1.083,3.979,3.979,0,0,0-1.05,2.893,3.991,3.991,0,0,0,.942,2.839,3.321,3.321,0,0,0,2.544,1,3.541,3.541,0,0,0,1.527-.274V-4.64H21.4V-6.782h5.063Zm12.3.8h-3.08L33.83-3.063q-.208-.349-.4-.623a3.459,3.459,0,0,0-.386-.469,1.535,1.535,0,0,0-.407-.3,1.032,1.032,0,0,0-.461-.1h-.722V0H28.775V-11.9h4.25q4.333,0,4.333,3.237a3.352,3.352,0,0,1-.191,1.15,3.194,3.194,0,0,1-.54.95,3.42,3.42,0,0,1-.843.73,4.345,4.345,0,0,1-1.1.481v.033a1.706,1.706,0,0,1,.515.27,3.685,3.685,0,0,1,.481.436,6.08,6.08,0,0,1,.444.535q.212.286.386.56Zm-7.3-9.895v3.312h1.162A1.927,1.927,0,0,0,34-7.081a1.662,1.662,0,0,0,.531-1.253q0-1.561-1.868-1.561ZM50.34,0H47.418l-.847-2.648H42.338L41.5,0H38.594l4.333-11.9h3.179ZM45.957-4.707l-1.278-4a5.214,5.214,0,0,1-.2-1.071h-.066a4.54,4.54,0,0,1-.208,1.038L42.911-4.707ZM60.135-.423a7.849,7.849,0,0,1-3.4.631A5.737,5.737,0,0,1,52.424-1.4a5.886,5.886,0,0,1-1.569-4.292,6.289,6.289,0,0,1,1.764-4.632A6.17,6.17,0,0,1,57.2-12.1a8.561,8.561,0,0,1,2.938.44v2.582a5.207,5.207,0,0,0-2.723-.714,3.612,3.612,0,0,0-2.706,1.054,3.912,3.912,0,0,0-1.029,2.855,3.837,3.837,0,0,0,.971,2.752,3.431,3.431,0,0,0,2.615,1.025,5.577,5.577,0,0,0,2.872-.764ZM69.349,0H62.21V-11.9h6.865V-9.72H64.891v2.648h3.893V-4.9H64.891v2.723h4.458Z" transform="translate(1121 3183.965)" fill="#4c4c4c"/>
    <path id="text126" d="M-24.26,0H-25V-2.874h-3.261V0H-29V-6.3h.738v2.764H-25V-6.3h.738Zm4.192.105a2.766,2.766,0,0,1-2.147-.883,3.276,3.276,0,0,1-.806-2.3A3.471,3.471,0,0,1-22.2-5.5a2.87,2.87,0,0,1,2.237-.905,2.7,2.7,0,0,1,2.1.879,3.288,3.288,0,0,1,.8,2.3,3.483,3.483,0,0,1-.817,2.439A2.817,2.817,0,0,1-20.068.105Zm.053-5.845a2.032,2.032,0,0,0-1.613.716,2.773,2.773,0,0,0-.62,1.881,2.792,2.792,0,0,0,.6,1.874,1.971,1.971,0,0,0,1.575.71,2.069,2.069,0,0,0,1.635-.677,2.766,2.766,0,0,0,.6-1.894,2.89,2.89,0,0,0-.58-1.929A1.989,1.989,0,0,0-20.015-5.739ZM-12.553,0h-3.27V-6.3h.738V-.668h2.531Zm4.5-6.3-2.079,3.973V0h-.738V-2.312L-12.9-6.3h.839l1.411,2.848q.026.053.154.387h.013a2.312,2.312,0,0,1,.167-.387L-8.84-6.3ZM-.424-.264a3.7,3.7,0,0,1-1.74.369A2.806,2.806,0,0,1-4.318-.76a3.194,3.194,0,0,1-.809-2.272,3.348,3.348,0,0,1,.91-2.443,3.087,3.087,0,0,1,2.307-.932,3.7,3.7,0,0,1,1.485.259v.787a3.012,3.012,0,0,0-1.494-.378,2.293,2.293,0,0,0-1.76.725,2.732,2.732,0,0,0-.675,1.938,2.6,2.6,0,0,0,.631,1.835,2.146,2.146,0,0,0,1.655.683A3.1,3.1,0,0,0-.424-.98ZM5.6,0H4.858V-2.874H1.6V0H.859V-6.3H1.6v2.764H4.858V-6.3H5.6Zm6.262-2.549q0,2.654-2.4,2.654Q7.17.105,7.17-2.448V-6.3h.738V-2.5q0,1.938,1.635,1.938,1.578,0,1.578-1.872V-6.3h.738ZM17.949,0h-.879L16.016-1.767a3.848,3.848,0,0,0-.281-.42,1.6,1.6,0,0,0-.279-.283.967.967,0,0,0-.308-.16,1.265,1.265,0,0,0-.371-.051H14.17V0h-.738V-6.3h1.881a2.68,2.68,0,0,1,.762.1,1.706,1.706,0,0,1,.606.314,1.46,1.46,0,0,1,.4.525,1.741,1.741,0,0,1,.145.736,1.772,1.772,0,0,1-.1.6,1.578,1.578,0,0,1-.281.49,1.7,1.7,0,0,1-.439.367,2.243,2.243,0,0,1-.578.235v.018a1.329,1.329,0,0,1,.275.16,1.512,1.512,0,0,1,.222.213,2.823,2.823,0,0,1,.209.279q.1.156.231.363ZM14.17-5.634v2.285h1a1.52,1.52,0,0,0,.512-.083,1.185,1.185,0,0,0,.406-.24,1.086,1.086,0,0,0,.268-.382,1.28,1.28,0,0,0,.1-.508.988.988,0,0,0-.327-.789,1.406,1.406,0,0,0-.947-.283Zm8.807,5.37a3.7,3.7,0,0,1-1.74.369A2.806,2.806,0,0,1,19.083-.76a3.194,3.194,0,0,1-.809-2.272,3.348,3.348,0,0,1,.91-2.443,3.087,3.087,0,0,1,2.307-.932,3.7,3.7,0,0,1,1.485.259v.787a3.012,3.012,0,0,0-1.494-.378,2.293,2.293,0,0,0-1.76.725,2.732,2.732,0,0,0-.675,1.938,2.6,2.6,0,0,0,.631,1.835,2.146,2.146,0,0,0,1.655.683A3.1,3.1,0,0,0,22.977-.98ZM29,0h-.738V-2.874H25V0H24.26V-6.3H25v2.764h3.261V-6.3H29Z" transform="translate(1119 3198.97)" fill="#4c4c4c"/>
  </g>
</svg>
