<svg xmlns="http://www.w3.org/2000/svg" width="122.569" height="125.443" viewBox="0 0 122.569 125.443">
  <g id="logo-2" transform="translate(-1240.67 -2720.531)">
    <g id="Group_12" data-name="Group 12" transform="translate(-17.243)">
      <g id="Group_6" data-name="Group 6" transform="translate(976 3286.665)">
        <g id="g44" transform="translate(361.849 -485.589)">
          <path id="path46" d="M0,0-17.592-27.773V-51.327a2.486,2.486,0,0,0-.709-1.739l-8.031-8.213c-.036-.037-.081-.065-.12-.1v-9.765H-23A1.658,1.658,0,0,0-21.341-72.8,1.656,1.656,0,0,0-23-74.461h-3.453v-4.427a1.658,1.658,0,0,0-1.659-1.657,1.656,1.656,0,0,0-1.657,1.657v4.427h-3.453A1.657,1.657,0,0,0-34.879-72.8a1.658,1.658,0,0,0,1.657,1.659h3.453v9.765c-.039.036-.084.064-.121.1l-8.029,8.213a2.486,2.486,0,0,0-.709,1.739v23.553L-56.22,0a2.487,2.487,0,0,0,.771,3.432,2.47,2.47,0,0,0,1.328.385,2.482,2.482,0,0,0,2.1-1.156L-34.04-25.721a2.483,2.483,0,0,0,.385-1.331V-50.313l5.544-5.669,5.544,5.669v23.261a2.485,2.485,0,0,0,.387,1.331L-4.2,2.661a2.487,2.487,0,0,0,3.432.771A2.487,2.487,0,0,0,0,0" fill="#4c4c4c"/>
        </g>
        <g id="g48" transform="translate(335.84 -509.269)">
          <path id="path50" d="M0,0A2.487,2.487,0,0,0-2.1-1.156,2.483,2.483,0,0,0-4.2,0l-15,23.68a2.486,2.486,0,0,0,.769,3.432A2.478,2.478,0,0,0-17.1,27.5,2.485,2.485,0,0,0-15,26.341L-2.1,5.977,10.8,26.341A2.487,2.487,0,1,0,15,23.68Z" fill="#4c4c4c"/>
        </g>
        <g id="g52" transform="translate(335.808 -532.018)">
          <path id="path54" d="M0,0A2.068,2.068,0,0,0-2.068-2.069,2.07,2.07,0,0,0-4.137,0V13.324H0Z" fill="#4c4c4c"/>
        </g>
      </g>
    </g>
    <path id="text58" d="M-44.546-11.9-47.692,0h-2.972l-1.976-7.637a6.368,6.368,0,0,1-.191-1.336h-.033a8.12,8.12,0,0,1-.216,1.336L-55.1,0h-3.1L-61.33-11.9h2.93l1.677,7.927a9.463,9.463,0,0,1,.158,1.361h.05a6.589,6.589,0,0,1,.241-1.395l2.158-7.894h2.872l1.951,7.994A9.788,9.788,0,0,1-49.1-2.631h.033A8.57,8.57,0,0,1-48.9-3.959l1.644-7.944ZM-32.734,0h-2.689V-4.848h-4.931V0h-2.681V-11.9h2.681v4.748h4.931V-11.9h2.689Zm5.4,0h-2.681V-11.9h2.681Zm11.065-9.72h-3.4V0H-22.35V-9.72h-3.378V-11.9h9.463ZM-7.525,0h-7.139V-11.9H-7.8V-9.72h-4.184v2.648h3.893V-4.9h-3.893v2.723h4.458ZM7.608-.423A7.849,7.849,0,0,1,4.2.208,5.737,5.737,0,0,1-.1-1.4,5.886,5.886,0,0,1-1.673-5.694,6.289,6.289,0,0,1,.091-10.326,6.17,6.17,0,0,1,4.669-12.1a8.561,8.561,0,0,1,2.938.44v2.582a5.207,5.207,0,0,0-2.723-.714A3.612,3.612,0,0,0,2.179-8.741,3.912,3.912,0,0,0,1.15-5.885a3.837,3.837,0,0,0,.971,2.752A3.431,3.431,0,0,0,4.736-2.108a5.577,5.577,0,0,0,2.872-.764ZM19.984,0H17.295V-4.848H12.364V0H9.683V-11.9h2.681v4.748h4.931V-11.9h2.689Zm13.19,0H30.252l-.847-2.648H25.172L24.334,0H21.428l4.333-11.9h3.179ZM28.791-4.707l-1.278-4a5.214,5.214,0,0,1-.2-1.071h-.066a4.54,4.54,0,0,1-.208,1.038L25.745-4.707Zm8.55.606V0H34.66V-11.9h4.2q4.5,0,4.5,3.793a3.64,3.64,0,0,1-1.291,2.9A5.114,5.114,0,0,1,38.619-4.1Zm0-5.744v3.71H38.4q2.142,0,2.142-1.876,0-1.834-2.142-1.834ZM52.241,0H45.1V-11.9h6.865V-9.72H47.783v2.648h3.893V-4.9H47.783v2.723h4.458Zm9,0H54.15V-11.9h2.681v9.729h4.408Z" transform="translate(1302 2832.13)" fill="#4c4c4c"/>
    <path id="text62" d="M-45.613.105A2.766,2.766,0,0,1-47.76-.778a3.276,3.276,0,0,1-.806-2.3A3.471,3.471,0,0,1-47.744-5.5a2.87,2.87,0,0,1,2.237-.905,2.7,2.7,0,0,1,2.1.879,3.288,3.288,0,0,1,.8,2.3,3.483,3.483,0,0,1-.817,2.439A2.817,2.817,0,0,1-45.613.105Zm.053-5.845a2.032,2.032,0,0,0-1.613.716,2.773,2.773,0,0,0-.62,1.881,2.792,2.792,0,0,0,.6,1.874,1.971,1.971,0,0,0,1.575.71,2.069,2.069,0,0,0,1.635-.677,2.766,2.766,0,0,0,.6-1.894,2.89,2.89,0,0,0-.58-1.929A1.989,1.989,0,0,0-45.56-5.739Zm7.392.105H-40.63v2.18h2.276v.664H-40.63V0h-.738V-6.3h3.2Zm7.387,0H-32.6V0h-.738V-5.634h-1.815V-6.3h4.373ZM-25.055,0h-.738V-2.874h-3.261V0h-.738V-6.3h.738v2.764h3.261V-6.3h.738Zm4.992,0H-23.4V-6.3h3.2v.668h-2.461v2.1h2.276v.664h-2.276V-.668h2.6Zm3.384-.255v-.87a1.69,1.69,0,0,0,.358.237,2.9,2.9,0,0,0,.439.178,3.5,3.5,0,0,0,.464.112,2.585,2.585,0,0,0,.431.04A1.687,1.687,0,0,0-13.97-.811a.855.855,0,0,0,.336-.727.854.854,0,0,0-.112-.444,1.262,1.262,0,0,0-.31-.345,3.074,3.074,0,0,0-.468-.3q-.27-.143-.582-.3-.33-.167-.615-.338a2.666,2.666,0,0,1-.5-.378,1.576,1.576,0,0,1-.332-.468,1.449,1.449,0,0,1-.121-.613,1.442,1.442,0,0,1,.189-.749,1.621,1.621,0,0,1,.5-.525,2.251,2.251,0,0,1,.7-.308,3.209,3.209,0,0,1,.8-.1,3.073,3.073,0,0,1,1.358.224v.831a2.461,2.461,0,0,0-1.433-.387,2.356,2.356,0,0,0-.483.051,1.365,1.365,0,0,0-.431.165.954.954,0,0,0-.308.294.782.782,0,0,0-.119.439.9.9,0,0,0,.09.417,1.023,1.023,0,0,0,.266.321,2.648,2.648,0,0,0,.428.281q.253.136.582.3t.642.352a2.933,2.933,0,0,1,.532.409,1.816,1.816,0,0,1,.363.5,1.4,1.4,0,0,1,.134.624,1.582,1.582,0,0,1-.182.789,1.5,1.5,0,0,1-.492.525,2.15,2.15,0,0,1-.714.292,3.911,3.911,0,0,1-.853.09,3.474,3.474,0,0,1-.369-.024q-.22-.024-.448-.07A3.658,3.658,0,0,1-16.352-.1,1.347,1.347,0,0,1-16.679-.255ZM-6.726,0h-.817l-.668-1.767h-2.672L-11.511,0h-.822l2.417-6.3h.765ZM-8.453-2.43l-.989-2.685a2.571,2.571,0,0,1-.1-.422h-.018a2.354,2.354,0,0,1-.1.422l-.98,2.685ZM-1.628-.264a3.7,3.7,0,0,1-1.74.369A2.806,2.806,0,0,1-5.522-.76,3.194,3.194,0,0,1-6.33-3.032a3.348,3.348,0,0,1,.91-2.443,3.087,3.087,0,0,1,2.307-.932,3.7,3.7,0,0,1,1.485.259v.787a3.012,3.012,0,0,0-1.494-.378,2.293,2.293,0,0,0-1.76.725,2.732,2.732,0,0,0-.675,1.938,2.6,2.6,0,0,0,.631,1.835,2.146,2.146,0,0,0,1.655.683A3.1,3.1,0,0,0-1.628-.98ZM4.173,0H3.294L2.239-1.767a3.848,3.848,0,0,0-.281-.42,1.6,1.6,0,0,0-.279-.283.967.967,0,0,0-.308-.16A1.265,1.265,0,0,0,1-2.681H.393V0H-.345V-6.3H1.536a2.68,2.68,0,0,1,.762.1,1.706,1.706,0,0,1,.606.314,1.46,1.46,0,0,1,.4.525,1.741,1.741,0,0,1,.145.736,1.772,1.772,0,0,1-.1.6,1.578,1.578,0,0,1-.281.49,1.7,1.7,0,0,1-.439.367,2.243,2.243,0,0,1-.578.235v.018a1.329,1.329,0,0,1,.275.16,1.512,1.512,0,0,1,.222.213,2.823,2.823,0,0,1,.209.279q.1.156.231.363ZM.393-5.634v2.285h1a1.52,1.52,0,0,0,.512-.083,1.185,1.185,0,0,0,.406-.24,1.086,1.086,0,0,0,.268-.382,1.28,1.28,0,0,0,.1-.508.988.988,0,0,0-.327-.789A1.406,1.406,0,0,0,1.4-5.634ZM8.378,0H5.038V-6.3h3.2v.668H5.777v2.1H8.053v.664H5.777V-.668h2.6ZM9.591,0V-6.3h1.74q3.331,0,3.331,3.072a3.1,3.1,0,0,1-.925,2.344A3.432,3.432,0,0,1,11.261,0Zm.738-5.634V-.668h.94A2.669,2.669,0,0,0,13.2-1.332a2.487,2.487,0,0,0,.69-1.881q0-2.421-2.575-2.421Zm11.764,0H20.274V0h-.738V-5.634H17.721V-6.3h4.373ZM27.6,0h-.879L25.666-1.767a3.848,3.848,0,0,0-.281-.42,1.6,1.6,0,0,0-.279-.283.967.967,0,0,0-.308-.16,1.265,1.265,0,0,0-.371-.051h-.606V0h-.738V-6.3h1.881a2.68,2.68,0,0,1,.762.1,1.706,1.706,0,0,1,.606.314,1.46,1.46,0,0,1,.4.525,1.741,1.741,0,0,1,.145.736,1.772,1.772,0,0,1-.1.6,1.578,1.578,0,0,1-.281.49,1.7,1.7,0,0,1-.439.367,2.243,2.243,0,0,1-.578.235v.018a1.329,1.329,0,0,1,.275.16,1.512,1.512,0,0,1,.222.213,2.823,2.823,0,0,1,.209.279q.1.156.231.363ZM23.821-5.634v2.285h1a1.52,1.52,0,0,0,.512-.083,1.185,1.185,0,0,0,.406-.24,1.086,1.086,0,0,0,.268-.382,1.28,1.28,0,0,0,.1-.508.988.988,0,0,0-.327-.789,1.406,1.406,0,0,0-.947-.283ZM29.2,0h-.738V-6.3H29.2Zm6.737,0h-.905L31.792-5.023a2.1,2.1,0,0,1-.2-.4h-.026a6.488,6.488,0,0,1,.035.866V0h-.738V-6.3h.958l3.155,4.944q.2.308.255.422h.018a6.667,6.667,0,0,1-.044-.927V-6.3h.738Zm2.391,0h-.738V-6.3h.738Zm5.383-5.634H41.9V0h-.738V-5.634H39.342V-6.3h4.373ZM48.927-6.3,46.848-2.329V0H46.11V-2.312L44.084-6.3h.839l1.411,2.848q.026.053.154.387H46.5a2.312,2.312,0,0,1,.167-.387L48.144-6.3Z" transform="translate(1301 2845.869)" fill="#4c4c4c"/>
  </g>
</svg>
